<?xml version="1.0" encoding="UTF-8" standalone="no"?>
<svg
   xmlns:dc="http://purl.org/dc/elements/1.1/"
   xmlns:cc="http://creativecommons.org/ns#"
   xmlns:rdf="http://www.w3.org/1999/02/22-rdf-syntax-ns#"
   xmlns:svg="http://www.w3.org/2000/svg"
   xmlns="http://www.w3.org/2000/svg"
   xmlns:sodipodi="http://sodipodi.sourceforge.net/DTD/sodipodi-0.dtd"
   xmlns:inkscape="http://www.inkscape.org/namespaces/inkscape"
   inkscape:version="1.0 (4035a4f, 2020-05-01)"
   sodipodi:docname="logo.svg"
   version="1.1"
   viewBox="0 0 551.44097 526.00006"
   height="526.00006"
   width="551.44098"
   data-name="Layer 1"
   id="f23abd52-b008-4a1c-94d1-771ddef2e3a4">
  <metadata
     id="metadata1029">
    <rdf:RDF>
      <cc:Work
         rdf:about="">
        <dc:format>image/svg+xml</dc:format>
        <dc:type
           rdf:resource="http://purl.org/dc/dcmitype/StillImage" />
        <dc:title></dc:title>
      </cc:Work>
    </rdf:RDF>
  </metadata>
  <defs
     id="defs1027">
    <inkscape:perspective
       sodipodi:type="inkscape:persp3d"
       inkscape:vp_x="0 : 263.00003 : 1"
       inkscape:vp_y="0 : 1000 : 0"
       inkscape:vp_z="551.44097 : 263.00003 : 1"
       inkscape:persp3d-origin="275.72048 : 175.33335 : 1"
       id="perspective903" />
  </defs>
  <sodipodi:namedview
     fit-margin-bottom="0"
     fit-margin-right="0"
     fit-margin-left="0"
     fit-margin-top="0"
     inkscape:current-layer="f23abd52-b008-4a1c-94d1-771ddef2e3a4"
     inkscape:window-maximized="0"
     inkscape:window-y="23"
     inkscape:window-x="0"
     inkscape:cy="194.93539"
     inkscape:cx="398.15624"
     inkscape:zoom="0.81547595"
     showgrid="false"
     id="namedview1025"
     inkscape:window-height="855"
     inkscape:window-width="1440"
     inkscape:pageshadow="2"
     inkscape:pageopacity="0"
     guidetolerance="10"
     gridtolerance="10"
     objecttolerance="10"
     borderopacity="1"
     bordercolor="#666666"
     pagecolor="#ffffff"
     inkscape:document-rotation="0" />
  <path
     id="path954"
     fill="#e6e6e6"
     d="m 350.00001,257.78363 a 82,82 0 1 1 82,-82 v 0 a 82.093,82.093 0 0 1 -82,82 z"
     style="fill:#cccccc" />
  <circle
     r="6"
     id="circle968"
     fill="#ff6584"
     cy="298.78366"
     cx="501.00003"
     style="fill:#5850ec;fill-opacity:1" />
  <circle
     id="circle972"
     fill="#f2f2f2"
     r="6"
     cy="411.78366"
     cx="417.00003"
     style="fill:#cccccc" />
  <circle
     id="circle974"
     fill="#ff6584"
     r="6"
     cy="38.783661"
     cx="243.00003"
     style="fill:#5850ec;fill-opacity:1" />
  <path
     id="path976"
     fill="#cccccc"
     d="m 336.00001,151.78363 a 15,15 0 1 1 15,-15 v 0 a 15.01671,15.01671 0 0 1 -15,15 z m 0,-28 a 13,13 0 1 0 13,13 13,13 0 0 0 -13,-13 z"
     style="fill:#808080" />
  <path
     id="path978"
     fill="#cccccc"
     d="m 308.00001,189.78363 a 11,11 0 1 1 11,-11 v 0 a 11.01245,11.01245 0 0 1 -11,11 z m 0,-20 a 9,9 0 1 0 9,9 9,9 0 0 0 -9,-9 z"
     style="fill:#808080" />
  <path
     id="path980"
     fill="#cccccc"
     d="m 370.00001,242.78363 a 11,11 0 1 1 11,-11 v 0 a 11.01245,11.01245 0 0 1 -11,11 z m 0,-20 a 9,9 0 1 0 9,9 v 0 a 9.01015,9.01015 0 0 0 -9,-9 z"
     style="fill:#808080" />
  <path
     id="path982"
     fill="#cccccc"
     d="m 350.00001,208.78363 c -68.41113,0 -122,-14.49512 -122,-33 0,-10.78272 15.90527,-20.04834 44.78613,-26.09033 l 0.41016,1.958 c -27.45215,5.74269 -43.19629,14.53859 -43.19629,24.13234 0,16.80371 54.95313,31 120,31 65.04687,0 120,-14.19629 120,-31 0,-9.61182 -15.79785,-18.41895 -43.34277,-24.16309 l 0.4082,-1.958 c 28.97656,6.04295 44.93457,15.31932 44.93457,26.12108 0,18.50492 -53.58887,33 -122,33 z"
     style="fill:#808080" />
  <path
     id="path984"
     fill="#e6e6e6"
     d="m 288.44099,526.00001 c -2.77441,0 -5.57715,-0.0439 -8.32813,-0.12989 l 0.0625,-1.998 c 3.9502,0.123 7.98145,0.15722 11.9502,0.10254 l 0.0273,2 q -1.85303,0.0249 -3.71191,0.0254 z m 15.74508,-0.46387 -0.11719,-1.99609 c 3.95605,-0.2334 7.96289,-0.56153 11.90918,-0.97461 l 0.209,1.98828 c -3.97654,0.41699 -8.01365,0.74804 -12.00099,0.98242 z m -36.09571,-0.31152 c -3.98925,-0.30567 -8.0205,-0.706 -11.98242,-1.19239 l 0.24414,-1.98437 c 3.93164,0.48144 7.93164,0.87988 11.89063,1.18261 z m 60.03907,-2.19922 -0.29981,-1.97657 c 3.93067,-0.59668 7.8916,-1.28906 11.76953,-2.05957 l 0.38965,1.96094 c -3.90816,0.77637 -7.8984,1.47455 -11.85933,2.0752 z m -83.93506,-0.73145 c -3.94092,-0.668 -7.91895,-1.43555 -11.82324,-2.2832 l 0.42431,-1.95508 c 3.87451,0.8418 7.82178,1.60352 11.73291,2.26563 z m 107.54834,-3.96191 -0.48047,-1.94141 c 3.8584,-0.9541 7.73828,-2.00879 11.53223,-3.13379 l 0.56835,1.918 c -3.8232,1.13379 -7.73238,2.19626 -11.62007,3.1572 z m -131.07617,-1.14649 c -3.86573,-1.02832 -7.75586,-2.15918 -11.5625,-3.36328 l 0.60253,-1.90625 c 3.77784,1.19434 7.63819,2.31641 11.47364,3.33594 z m 154.1582,-5.70117 -0.65625,-1.88867 c 3.74414,-1.30176 7.50976,-2.709 11.19433,-4.18359 l 0.74219,1.85742 c -3.71187,1.48535 -7.50679,2.90332 -11.28023,4.21484 z m -177.14547,-1.56641 c -3.75439,-1.37988 -7.53223,-2.86914 -11.22754,-4.42578 l 0.77637,-1.84375 c 3.667,1.54493 7.41553,3.02246 11.1416,4.39258 z m 199.47461,-7.36822 -0.82812,-1.82031 c 3.5957,-1.63379 7.21,-3.37793 10.74218,-5.1836 l 0.91016,1.78125 c -3.55957,1.8194 -7.20117,3.57624 -10.82422,5.22266 z m -221.71045,-1.99412 c -3.60889,-1.71973 -7.23144,-3.54883 -10.76562,-5.4375 l 0.94238,-1.76367 c 3.50781,1.874 7.10205,3.68945 10.68359,5.39648 z m 243.10889,-8.94434 -0.99024,-1.73632 c 3.44825,-1.96778 6.89063,-4.03614 10.2295,-6.14844 l 1.06836,1.68945 c -3.36426,2.129 -6.832,4.21393 -10.30762,6.19537 z m -264.376,-2.418 c -3.43262,-2.042 -6.87012,-4.19531 -10.21631,-6.39941 l 1.10059,-1.66992 c 3.32031,2.1875 6.73144,4.32422 10.13818,6.35058 z m 284.69922,-10.43945 -1.14453,-1.63867 c 3.24707,-2.26856 6.4873,-4.64453 9.63086,-7.06055 l 1.21875,1.58594 c -3.16693,2.43469 -6.43256,4.82825 -9.705,7.1134 z m -304.82568,-2.81641 c -3.228,-2.34472 -6.45264,-4.80078 -9.585,-7.30175 l 1.248,-1.5625 c 3.1084,2.48144 6.30859,4.91894 9.51172,7.24511 z m 323.90289,-11.84558 -1.28906,-1.52929 c 3.02636,-2.55371 6.03808,-5.21485 8.95312,-7.91016 l 1.35742,1.46875 c -2.93656,2.71577 -5.97172,5.39741 -9.02152,7.97065 z m -342.728,-3.18554 c -3.00635,-2.63282 -5.99316,-5.3711 -8.877,-8.13965 l 1.38476,-1.44336 c 2.86231,2.74805 5.82618,5.46582 8.80957,8.0791 z m 360.40088,-13.16114 -1.42383,-1.40429 c 2.79,-2.82715 5.54981,-5.75293 8.20117,-8.69532 l 1.48633,1.33789 c -2.67193,2.96582 -5.45221,5.91309 -8.26373,8.76172 z M 97.852627,444.23345 c -2.7583,-2.90039 -5.48242,-5.89843 -8.09668,-8.91015 l 1.51074,-1.31055 c 2.59424,2.98926 5.29737,5.96387 8.03516,8.8418 z m 393.893073,-14.37988 -1.54492,-1.26953 c 2.5205,-3.06738 5.002,-6.23242 7.37793,-9.40918 l 1.60156,1.19727 c -2.39362,3.20117 -4.89459,6.3916 -7.43463,9.48144 z M 82.074837,426.05663 c -2.477,-3.12989 -4.916,-6.36133 -7.24951,-9.6045 l 1.623,-1.168 c 2.31592,3.21778 4.73633,6.42481 7.19483,9.53223 z m 424.099613,-15.497 -1.6543,-1.12305 c 2.23047,-3.28418 4.415,-6.66406 6.49219,-10.04785 l 1.70508,1.04687 c -2.09479,3.40921 -4.296,6.81543 -6.543,10.124 z m -438.150883,-4.0293 c -2.1792,-3.34082 -4.312,-6.77832 -6.33984,-10.21973 l 1.72265,-1.01562 c 2.0127,3.415 4.1294,6.82715 6.292,10.1416 z m 450.766103,-16.51074 -1.75,-0.9668 c 1.9199,-3.47461 3.7852,-7.043 5.5459,-10.60644 l 1.793,0.88671 c -1.7736,3.5898 -3.6543,7.1855 -5.5889,10.68648 z M 55.818977,385.81451 c -1.86523,-3.52539 -3.67383,-7.14258 -5.37549,-10.75 l 1.8086,-0.85352 c 1.689,3.58008 3.48339,7.16993 5.33447,10.668 z m 473.651393,-17.416 -1.832,-0.80273 c 1.5937,-3.63965 3.124,-7.36719 4.5488,-11.07813 l 1.8672,0.7168 c -1.4356,3.74018 -2.9786,7.49602 -4.584,11.16399 z M 45.567997,364.08308 c -1.5332,-3.67968 -3.00146,-7.44433 -4.36377,-11.19043 l 1.87989,-0.68359 c 1.35156,3.71777 2.80859,7.45313 4.32959,11.10449 z m 492.550773,-18.21582 -1.8984,-0.6289 c 1.248,-3.76074 2.4258,-7.60449 3.5,-11.42578 l 1.9258,0.541 c -1.083,3.85053 -2.2705,7.72455 -3.5274,11.51361 z M 37.351627,341.48445 c -1.18994,-3.81152 -2.3081,-7.70508 -3.32324,-11.57422 l 1.93457,-0.50781 c 1.00733,3.83984 2.11719,7.7041 3.29785,11.48633 z m 507.285643,-18.79492 -1.9483,-0.45313 c 0.8955,-3.85449 1.7139,-7.791 2.4336,-11.69824 l 1.9668,0.36133 c -0.7245,3.93848 -1.5497,7.9043 -2.452,11.79 z M 31.243217,318.19539 c -0.834,-3.90625 -1.58887,-7.88574 -2.24317,-11.83008 l 1.97266,-0.32812 c 0.6499,3.915 1.39892,7.86425 2.22656,11.74023 z m 517.752353,-19.1836 -1.9824,-0.27148 c 0.5381,-3.917 0.9922,-7.91113 1.3506,-11.87207 l 1.9922,0.17969 c -0.3612,3.99219 -0.8192,8.0166 -1.3602,11.96386 z m -521.693823,-4.5664 c -0.47168,-3.959 -0.85889,-7.99121 -1.15137,-11.98438 l 1.99512,-0.14648 c 0.28955,3.96387 0.67432,7.96484 1.14258,11.89453 z m 523.868623,-19.40918 -1.998,-0.0898 c 0.1778,-3.9629 0.2686,-7.98243 0.2686,-11.94629 h 2 c 10e-5,3.99414 -0.091,8.04394 -0.2704,12.03613 z M 25.544397,270.43465 c -0.0683,-2.45215 -0.103,-4.95411 -0.10351,-7.43457 q 0,-2.3086 0.0396,-4.6084 l 2,0.0351 q -0.0396,2.28224 -0.0396,4.57325 c 4.9e-4,2.46191 0.0352,4.94531 0.10254,7.37988 z M 549.42627,260.21004 c -0.041,-3.96533 -0.1739,-7.98438 -0.3936,-11.94629 l 1.9961,-0.11133 c 0.2217,3.99219 0.3555,8.0415 0.3975,12.03613 z m -521.471123,-13.72325 -1.99609,-0.125 c 0.24951,-3.99609 0.59423,-8.03222 1.02343,-11.99658 l 1.98828,0.21533 c -0.42626,3.9346 -0.76757,7.93997 -1.01562,11.90625 z M 548.09717,236.35203 c -0.3994,-3.94287 -0.8965,-7.93213 -1.4766,-11.85791 l 1.9785,-0.292 c 0.584,3.95557 1.085,7.9751 1.4883,11.94776 z m -517.569273,-13.61814 -1.97656,-0.30566 c 0.61279,-3.95654 1.32471,-7.94434 2.11621,-11.854 l 1.96,0.39649 c -0.78519,3.87991 -1.49174,7.83739 -2.09965,11.76317 z M 544.60207,212.71827 c -0.7627,-3.90137 -1.623,-7.82862 -2.5586,-11.67237 l 1.9434,-0.47265 c 0.9423,3.873 1.8095,7.83056 2.5781,11.76123 z M 35.265207,199.3169 l -1.93994,-0.48633 c 0.97119,-3.87353 2.04687,-7.77929 3.19726,-11.60937 l 1.915,0.57519 c -1.14107,3.80078 -2.20846,7.67676 -3.17232,11.52051 z m 503.684563,-9.81348 c -1.1153,-3.8081 -2.334,-7.63867 -3.6221,-11.38671 l 1.8906,-0.6504 c 1.2988,3.77686 2.5274,7.6377 3.6514,11.47461 z m -496.799703,-13.10009 -1.88672,-0.66309 c 1.3291,-3.78076 2.76416,-7.57959 4.26513,-11.291 l 1.8545,0.75 c -1.48984,3.6826 -2.91416,7.45262 -4.23291,11.20409 z M 531.18327,166.9087 c -1.459,-3.68067 -3.0215,-7.37451 -4.6445,-10.97949 l 1.8242,-0.82129 c 1.6357,3.63281 3.21,7.355 4.6797,11.06347 z m -480.056703,-12.70264 -1.81739,-0.835 c 1.67041,-3.63769 3.44825,-7.28564 5.28418,-10.84228 l 1.77735,0.917 c -1.8223,3.52985 -3.58646,7.14991 -5.24417,10.76028 z m 470.268503,-9.03564 c -1.79,-3.53077 -3.6865,-7.06885 -5.6367,-10.51465 l 1.7402,-0.98535 c 1.9658,3.47265 3.876,7.03759 5.6797,10.5957 z m -459.291513,-12.2295 -1.7334,-0.998 c 1.99512,-3.46436 4.09912,-6.93213 6.2539,-10.30616 l 1.68555,1.07618 c -2.13812,3.34861 -4.2265,6.79 -6.206,10.228 z m 447.541503,-8.53515 c -2.11328,-3.36424 -4.32617,-6.71582 -6.57715,-9.96192 l 1.64258,-1.13964 c 2.26855,3.271 4.499,6.648 6.62793,10.03808 z m -434.668433,-11.62354 -1.63476,-1.15234 c 2.30566,-3.27 4.71631,-6.5293 7.1665,-9.6875 l 1.58008,1.22558 c -2.43115,3.1348 -4.82422,6.36913 -7.11182,9.61426 z m 421.064003,-7.99218 c -2.41016,-3.15674 -4.91992,-6.29493 -7.46191,-9.32715 l 1.5332,-1.28467 c 2.56055,3.05566 5.08984,6.21728 7.51855,9.398 z M 89.630067,93.8911 88.107597,92.59423 c 2.58741,-3.03906 5.28418,-6.064 8.01514,-8.99072 l 1.46192,1.36424 c -2.71008,2.90481 -5.38635,5.90724 -7.95459,8.92335 z M 480.69989,86.4829 c -2.68652,-2.92432 -5.47363,-5.82275 -8.28223,-8.61377 l 1.41016,-1.41894 c 2.83008,2.813 5.63769,5.73291 8.34473,8.6792 z m -374.76514,-10.064 -1.39843,-1.42969 c 2.85986,-2.79785 5.81933,-5.564 8.79541,-8.22119 l 1.332,1.49218 c -2.95362,2.63675 -5.89063,5.38187 -8.729,8.15874 z m 357.81787,-6.77979 c -2.94433,-2.67041 -5.98437,-5.3042 -9.03515,-7.82812 l 1.27539,-1.541 c 3.07324,2.543 6.13672,5.19677 9.10351,7.88769 z M 123.753,60.50733 l -1.26269,-1.5508 c 3.09326,-2.519 6.29,-5.0034 9.50195,-7.38427 l 1.19141,1.60644 c -3.18799,2.36328 -6.36084,4.82863 -9.43067,7.32863 z M 445.33454,54.4004 c -3.17675,-2.39209 -6.44531,-4.73926 -9.71484,-6.97608 l 1.12891,-1.65039 c 3.29492,2.25342 6.58789,4.61817 9.78906,7.02881 z m -302.39941,-8.11035 -1.11621,-1.65918 c 3.31055,-2.22754 6.71875,-4.4087 10.13037,-6.48438 l 1.03906,1.709 c -3.38528,2.05956 -6.76758,4.22459 -10.05322,6.43456 z m 282.65918,-5.39112 c -3.37988,-2.09179 -6.85059,-4.13086 -10.31543,-6.06152 l 0.97266,-1.74707 c 3.49218,1.94531 6.98925,4.00049 10.3955,6.10744 z m -262.27148,-7.01025 -0.96,-1.75488 c 3.50245,-1.91651 7.09375,-3.77588 10.67383,-5.52735 l 0.87891,1.79687 c -3.55268,1.73778 -7.11664,3.583 -10.59271,5.48534 z m 241.37011,-4.63379 c -3.55859,-1.77294 -7.2041,-3.48584 -10.835,-5.09082 l 0.80859,-1.8291 c 3.65918,1.61718 7.333,3.34326 10.91895,5.12989 z m -219.94824,-5.84426 -0.79492,-1.835 c 3.66016,-1.58643 7.4043,-3.10792 11.12793,-4.52247 l 0.71,1.87012 c -3.69535,1.40335 -7.41064,2.91314 -11.04301,4.48735 z m 198.05176,-3.83448 c -3.70313,-1.436 -7.49317,-2.80615 -11.26563,-4.07177 l 0.63672,-1.89649 c 3.80078,1.27588 7.62012,2.65625 11.35156,4.104 z m -175.74317,-4.63671 -0.623,-1.90039 c 3.80078,-1.24609 7.67871,-2.41943 11.52539,-3.48632 l 0.53467,1.92675 c -3.81743,1.05915 -7.66557,2.22315 -11.43706,3.45996 z m 153.06348,-2.97366 c -3.81445,-1.0874 -7.70508,-2.1001 -11.56348,-3.00976 l 0.459,-1.94629 c 3.88867,0.9165 7.80859,1.937 11.65332,3.03222 z m -130.0415,-3.41553 -0.44532,-1.9497 c 3.89649,-0.89013 7.86573,-1.70117 11.79688,-2.41016 l 0.35547,1.96777 c -3.90186,0.70415 -7.84027,1.50883 -11.707,2.39212 z M 336.86286,6.48337 c -3.89453,-0.731 -7.86132,-1.38135 -11.791,-1.93312 l 0.27734,-1.98046 c 3.96,0.55615 7.958,1.21142 11.88282,1.94775 z M 253.58747,4.3071 253.32283,2.32468 c 3.959,-0.52833 7.98535,-0.97266 11.96679,-1.31935 l 0.17383,1.99219 c -3.95117,0.34477 -7.94629,0.7852 -11.876,1.30961 z M 313.20369,3.15963 C 309.26423,2.78853 305.25447,2.5024 301.28474,2.3105 l 0.0977,-1.998 c 3.999,0.19385 8.03906,0.482 12.00879,0.856 z m -35.81446,-0.9292 -0.084,-1.998 C 280.98101,0.07911 284.7271,9.9e-4 288.44097,0 l 0.90527,0.0015 -0.006,2 L 288.44083,2 c -3.68555,10e-4 -7.4043,0.07859 -11.05176,0.23046 z"
     style="fill:#999999" />
  <path
     id="path986"
     fill="#e6e6e6"
     d="m 62.914007,368.78928 c 9.36615,-11.33011 19.94116,-21.98141 32.84784,-29.018 12.906683,-7.03659 28.454653,-10.15924 42.546633,-5.97461 10.51953,3.12375 19.486,9.99582 27.7843,17.17615 17.002,14.71151 32.67945,31.55514 52.73328,41.72073 20.05383,10.16559 46.47772,12.063 63.511,-2.6124 13.48077,-11.61471 19.22833,-31.73233 35.3269,-39.31326 15.86939,-7.473 34.26972,0.5516 50.37329,7.50568 a 421.22991,421.22991 0 0 0 67.648,22.62985 c 15.65967,3.799 31.791,6.71109 47.83228,5.18329 16.04128,-1.5278 32.14164,-7.94971 42.60414,-20.205"
     style="fill:#cccccc" />
  <path
     id="path990"
     fill="#6c63ff"
     d="m 362.44581,188.50727 h 40.37653 a 141.21891,141.21891 0 0 0 0,-48.14125 h -40.37653 a 86.62178,86.62178 0 0 1 0,48.14125 z"
     style="fill:#5850ec;fill-opacity:1" />
  <rect
     id="rect996"
     fill="#f2f2f2"
     height="3"
     width="27"
     y="151.78366"
     x="371.00003" />
  <rect
     id="rect998"
     fill="#f2f2f2"
     height="3"
     width="27"
     y="165.78366"
     x="371.00003" />
  <rect
     id="rect1000"
     fill="#f2f2f2"
     height="3"
     width="27"
     y="158.78366"
     x="371.00003" />
  <circle
     id="circle1014"
     fill="#ff6584"
     r="6"
     cy="397.78366"
     cx="249.00003"
     style="fill:#5850ec;fill-opacity:1" />
  <text
     xml:space="preserve"
     style="font-style:normal;font-weight:normal;font-size:46.6667px;line-height:1.25;font-family:sans-serif;opacity:1;fill:#5850ec;fill-opacity:1;stroke:none"
     x="90.423386"
     y="262.23364"
     id="text919"><tspan
       sodipodi:role="line"
       id="tspan917"
       x="90.423386"
       y="262.23364"
       style="font-style:normal;font-variant:normal;font-weight:bold;font-stretch:normal;font-size:46.6667px;font-family:Arial;-inkscape-font-specification:'Arial Bold';fill:#5850ec;fill-opacity:1">kallisto</tspan></text>
  <text
     id="text919-9"
     y="308.30191"
     x="92.213753"
     style="font-style:normal;font-weight:normal;font-size:40px;line-height:1.25;font-family:sans-serif;fill:#b3b3b3;fill-opacity:1;stroke:none"
     xml:space="preserve"><tspan
       style="font-style:italic;font-variant:normal;font-weight:normal;font-stretch:normal;font-size:40px;font-family:Arial;-inkscape-font-specification:'Arial Italic';fill:#808080;fill-opacity:1"
       y="308.30191"
       x="92.213753"
       id="tspan917-1"
       sodipodi:role="line">atomic featurizer</tspan></text>
  <g
     inkscape:groupmode="layer"
     id="layer2"
     inkscape:label="back" />
  <g
     inkscape:groupmode="layer"
     id="layer1"
     inkscape:label="front">
    <circle
       id="circle966"
       fill="#e6e6e6"
       r="25"
       cy="258.78366"
       cx="25"
       style="fill:#cccccc" />
  </g>
</svg>
